# xmcd
#
# Track frame offsets:
#	150
#	19864
#	33015
#	51928
#	70819
#	83436
#	97386
#	104884
#	116243
#	124754
#	136400
#	149668
#
# Disc length: 2199 seconds
#
# Revision: 0
# Processed by: cddbd v1.4PL0 Copyright (c) Steve Scherf et al.
# Submitted via: dBpowerAMP V4.0
#
DISCID=b308950c
DTITLE=Various Artist - Classic Country Vol. 3
DYEAR=1900
DGENRE=Country
TTITLE0=If I Said You Had A Beautiful Body
TTITLE1=Cry 
TTITLE2=Without You 
TTITLE3=Secret Love
TTITLE4=Here Comes My Baby 
TTITLE5=I Always Get Lucky With You
TTITLE6=Highways
TTITLE7=Win Me Up
TTITLE8=Ring On Her Finger
TTITLE9=You're Out Doin
TTITLE10=Ball And Chain
TTITLE11=San Antonio Rose
EXTD=
EXTT0=
EXTT1=
EXTT2=
EXTT3=
EXTT4=
EXTT5=
EXTT6=
EXTT7=
EXTT8=
EXTT9=
EXTT10=
EXTT11=
PLAYORDER=
